<?xml version="1.0" encoding="UTF-8"?>
<svg version="1.1" xmlns="http://www.w3.org/2000/svg" width="500" height="500">
<path d="M0 0 C50.83384973 0 50.83384973 0 61.98779297 11.11376953 C65.67742918 14.57241177 69.94087745 17.24320119 74.125 20.0625 C75.80745189 21.23693515 77.48718764 22.4152718 79.1640625 23.59765625 C79.97649414 24.16887207 80.78892578 24.74008789 81.62597656 25.32861328 C85.93057589 28.35918578 90.23088686 31.39581644 94.52954102 34.43481445 C103.33130711 40.65414509 112.16667208 46.82562083 121 53 C129.80241907 47.55890931 138.2196283 41.66193377 146.64941406 35.66650391 C150.69101238 32.80111648 154.75197969 29.96347969 158.8125 27.125 C160.49220547 25.95054653 162.17189282 24.77606715 163.8515625 23.6015625 C164.69364258 23.0127832 165.53572266 22.42400391 166.40332031 21.81738281 C169.07005269 19.95097102 171.73451213 18.08135319 174.3984375 16.2109375 C175.28426514 15.58944824 176.17009277 14.96795898 177.08276367 14.32763672 C178.76057655 13.15038419 180.43786416 11.97238251 182.11450195 10.79345703 C182.8849585 10.25317871 183.65541504 9.71290039 184.44921875 9.15625 C185.11268311 8.69025391 185.77614746 8.22425781 186.4597168 7.74414062 C208.42193296 -7.33496291 199.63277929 0 243 0 C243 62.7 243 125.4 243 190 C224.19 190 205.38 190 186 190 C186 152.38 186 114.76 186 76 C151.79773461 93.52555454 151.79773461 93.52555454 146.93481445 109.96459961 C146.89801187 113.81944343 147.03266231 117.3450639 147.36328125 121.15234375 C147.40629757 123.15944261 147.4335747 125.16693298 147.4460907 127.17445374 C147.51970638 132.38544339 147.80157121 137.56333839 148.13317871 142.76342773 C148.48772929 149.03914186 148.57360092 155.32398393 148.7062912 161.60755157 C148.93587059 171.09385146 149.49708684 180.50678603 150 190 C131.19 190 112.38 190 93 190 C93.20625 183.6165625 93.4125 177.233125 93.625 170.65625 C93.70215107 166.58129867 93.77205765 162.50871352 93.81640625 158.43359375 C93.88730932 151.98048176 93.98301258 145.53523887 94.23779297 139.08642578 C96.33644729 116.36297111 96.33644729 116.36297111 89.72265625 95.53564453 C84.40830128 90.31618875 78.39474501 87.04416074 71.42016602 84.5255127 C66.32049253 82.2508814 61.7109726 78.99789165 57 76 C57 113.62 57 151.24 57 190 C38.19 190 19.38 190 0 190 C0 127.3 0 64.6 0 0 Z " fill="#7FA3FF" transform="translate(28,148)"/>
<path d="M0 0 C2.46577845 0.00373786 4.93155839 0.00658117 7.39733887 0.00857544 C13.83502422 0.01615104 20.27261694 0.03574627 26.71026611 0.0579834 C33.30032092 0.07857382 39.89039093 0.08760517 46.48046875 0.09765625 C59.37243497 0.11899878 72.26433752 0.15266638 85.15625 0.1953125 C85.93481852 3.14397143 86.28255732 5.70851491 86.28564453 8.7644043 C86.28879669 9.66180832 86.29194885 10.55921234 86.29519653 11.48381042 C86.29216019 12.92461723 86.29216019 12.92461723 86.2890625 14.39453125 C86.29001923 15.38532181 86.29097595 16.37611237 86.29196167 17.39692688 C86.29264139 19.4873562 86.29080162 21.57778764 86.28662109 23.66821289 C86.28125291 26.88106979 86.28658186 30.09378797 86.29296875 33.30664062 C86.29230827 35.33593781 86.29102772 37.36523491 86.2890625 39.39453125 C86.29108673 40.36114182 86.29311096 41.32775238 86.29519653 42.32365417 C86.29046829 43.65557549 86.29046829 43.65557549 86.28564453 45.0144043 C86.28484894 45.79953903 86.28405334 46.58467377 86.28323364 47.39360046 C86.15625 49.1953125 86.15625 49.1953125 85.15625 50.1953125 C82.04448559 50.30480385 78.95410949 50.34955525 75.84155273 50.35302734 C74.86248962 50.35810806 73.88342651 50.36318878 72.87469482 50.36842346 C70.7379338 50.37915833 68.60116132 50.38776617 66.46438408 50.39454269 C63.06995148 50.40631901 59.67564685 50.42577539 56.28126526 50.44766235 C46.62578684 50.50927309 36.97031674 50.56306188 27.31469727 50.59667969 C21.41304441 50.61778198 15.51161699 50.6532239 9.61009407 50.69743729 C7.37093855 50.71149295 5.13174305 50.72029583 2.8925457 50.72349167 C-24.19246812 50.45296267 -24.19246812 50.45296267 -47.99609375 62.01171875 C-57.31908028 71.76833256 -59.38017703 85.8949403 -59.08984375 98.92578125 C-58.22275692 110.44564916 -56.41833921 122.45105647 -48.02734375 131.05859375 C-32.36055861 143.81357236 -9.67846017 142.65352896 9.34765625 142.70703125 C11.63265422 142.72391515 13.91764312 142.74207024 16.20262146 142.76142883 C22.15853028 142.80853232 28.1144023 142.83859656 34.07043457 142.86486816 C41.24781427 142.9001703 48.42505269 142.95706797 55.60231781 143.01026154 C66.45360946 143.08830927 77.30472213 143.13926721 88.15625 143.1953125 C88.15625 159.6953125 88.15625 176.1953125 88.15625 193.1953125 C63.12389644 193.27553012 63.12389644 193.27553012 52.31054688 193.29296875 C44.98198487 193.30484425 37.65347365 193.31876828 30.32495117 193.34619141 C24.40508029 193.36820037 18.485264 193.37993911 12.5653553 193.38506699 C10.32636724 193.38871313 8.08738157 193.3958299 5.84841728 193.40677261 C-29.95447913 193.57451818 -65.78099411 191.4551594 -92.84375 165.1953125 C-93.46894531 164.64359375 -94.09414063 164.091875 -94.73828125 163.5234375 C-110.11135466 149.50374979 -116.61489385 126.38847777 -117.75390625 106.1640625 C-117.78355469 105.184375 -117.81320312 104.2046875 -117.84375 103.1953125 C-117.88371094 102.050625 -117.92367188 100.9059375 -117.96484375 99.7265625 C-118.41532908 74.49938425 -113.2181153 49.39855836 -95.84375 30.1953125 C-95.17859375 29.43734375 -94.5134375 28.679375 -93.828125 27.8984375 C-69.69646987 1.97925236 -33.09374316 -0.14863343 0 0 Z " fill="#7FA3FF" transform="translate(393.84375,146.8046875)"/>
<path d="M0 0 C50.83384973 0 50.83384973 0 61.98779297 11.11376953 C65.67742918 14.57241177 69.94087745 17.24320119 74.125 20.0625 C75.80745189 21.23693515 77.48718764 22.4152718 79.1640625 23.59765625 C79.97649414 24.16887207 80.78892578 24.74008789 81.62597656 25.32861328 C85.93057589 28.35918578 90.23088686 31.39581644 94.52954102 34.43481445 C103.33130711 40.65414509 112.16667208 46.82562083 121 53 C129.80241907 47.55890931 138.2196283 41.66193377 146.64941406 35.66650391 C150.69101238 32.80111648 154.75197969 29.96347969 158.8125 27.125 C160.49220547 25.95054653 162.17189282 24.77606715 163.8515625 23.6015625 C164.69364258 23.0127832 165.53572266 22.42400391 166.40332031 21.81738281 C169.07005269 19.95097102 171.73451213 18.08135319 174.3984375 16.2109375 C175.28426514 15.58944824 176.17009277 14.96795898 177.08276367 14.32763672 C178.76057655 13.15038419 180.43786416 11.97238251 182.11450195 10.79345703 C182.8849585 10.25317871 183.65541504 9.71290039 184.44921875 9.15625 C185.11268311 8.69025391 185.77614746 8.22425781 186.4597168 7.74414062 C208.42193296 -7.33496291 199.63277929 0 243 0 C243 62.7 243 125.4 243 190 C224.19 190 205.38 190 186 190 C186 152.38 186 114.76 186 76 C151.79773461 93.52555454 151.79773461 93.52555454 146.93481445 109.96459961 C146.89801187 113.81944343 147.03266231 117.3450639 147.36328125 121.15234375 C147.40629757 123.15944261 147.4335747 125.16693298 147.4460907 127.17445374 C147.51970638 132.38544339 147.80157121 137.56333839 148.13317871 142.76342773 C148.48772929 149.03914186 148.57360092 155.32398393 148.7062912 161.60755157 C148.93587059 171.09385146 149.49708684 180.50678603 150 190 C131.19 190 112.38 190 93 190 C93.20625 183.6165625 93.4125 177.233125 93.625 170.65625 C93.70215107 166.58129867 93.77205765 162.50871352 93.81640625 158.43359375 C93.88730932 151.98048176 93.98301258 145.53523887 94.23779297 139.08642578 C96.33644729 116.36297111 96.33644729 116.36297111 89.72265625 95.53564453 C84.40830128 90.31618875 78.39474501 87.04416074 71.42016602 84.5255127 C66.32049253 82.2508814 61.7109726 78.99789165 57 76 C57 113.62 57 151.24 57 190 C38.19 190 19.38 190 0 190 C0 127.3 0 64.6 0 0 Z M9 9 C9 65.76 9 122.52 9 181 C21.87 181 34.74 181 48 181 C48.33 140.74 48.66 100.48 49 59 C93 88 93 88 100 93 C100.66 93 101.32 93 102 93 C102 122.04 102 151.08 102 181 C114.87 181 127.74 181 141 181 C141 151.96 141 122.92 141 93 C143.475 92.01 143.475 92.01 146 91 C147.50529598 90.09598094 148.98359833 89.14587416 150.43554688 88.15844727 C151.2799231 87.5876796 152.12429932 87.01691193 152.9942627 86.42884827 C153.89334351 85.8142424 154.79242432 85.19963654 155.71875 84.56640625 C156.65424683 83.93266586 157.58974365 83.29892548 158.55358887 82.64598083 C161.5387675 80.62259384 164.51954443 78.59283616 167.5 76.5625 C170.4812418 74.53692011 173.4633865 72.51268423 176.44641113 70.48973083 C178.30073682 69.23164516 180.15389497 67.97183647 182.0057373 66.71009827 C182.85011353 66.13617844 183.69448975 65.56225861 184.56445312 64.97094727 C185.30215942 64.46845963 186.03986572 63.96597198 186.79992676 63.44825745 C189.1563182 61.89709934 191.58091654 60.45145008 194 59 C194.33 99.26 194.66 139.52 195 181 C207.87 181 220.74 181 234 181 C234 124.24 234 67.48 234 9 C207.48228095 6.37237298 207.48228095 6.37237298 189.1640625 16.875 C188.65133789 17.39835937 188.13861328 17.92171875 187.61035156 18.4609375 C184.79849954 21.14831093 181.55182814 23.179583 178.3125 25.3125 C176.96826633 26.22654597 175.62585366 27.14327498 174.28515625 28.0625 C173.59309082 28.53558594 172.90102539 29.00867188 172.18798828 29.49609375 C168.1912268 32.24325406 164.22112912 35.02847272 160.25 37.8125 C159.41936035 38.39483398 158.5887207 38.97716797 157.73291016 39.57714844 C156.02903253 40.77199057 154.32525761 41.96697917 152.62158203 43.16210938 C149.92483654 45.05269422 147.2263591 46.94078224 144.52734375 48.828125 C143.63305664 49.45356201 142.73876953 50.07899902 141.81738281 50.72338867 C140.11504753 51.91385392 138.4125821 53.1041331 136.70996094 54.29418945 C135.93297852 54.837771 135.15599609 55.38135254 134.35546875 55.94140625 C133.61603027 56.45461426 132.8765918 56.96782227 132.11474609 57.49658203 C130.72637437 58.48360501 129.35818819 59.49978314 128.01416016 60.54638672 C123.4638431 64.05732192 123.4638431 64.05732192 121.00073242 63.75292969 C117.66522546 62.49768826 114.88862956 60.35914753 112 58.3125 C111.30358398 57.82628174 110.60716797 57.34006348 109.88964844 56.83911133 C108.37965125 55.78374231 106.87158479 54.72560669 105.36523438 53.66503906 C102.98177943 51.98717338 100.59320196 50.3168542 98.203125 48.6484375 C93.98663895 45.70351694 89.77490422 42.75188031 85.56445312 39.79833984 C82.20657904 37.44360827 78.84669204 35.09175989 75.48657227 32.74023438 C73.83847079 31.58680607 72.19051976 30.43316277 70.54272461 29.27929688 C66.14136914 26.19734685 61.73798557 23.1183414 57.33203125 20.04296875 C55.94661133 19.07520508 55.94661133 19.07520508 54.53320312 18.08789062 C52.7499201 16.84228088 50.96608543 15.59746045 49.18164062 14.35351562 C47.98764648 13.51916992 47.98764648 13.51916992 46.76953125 12.66796875 C45.71149292 11.92969849 45.71149292 11.92969849 44.63208008 11.17651367 C43 10 43 10 42 9 C31.11 9 20.22 9 9 9 Z " fill="#BACDFF" transform="translate(28,148)"/>
<path d="M0 0 C2.46577845 0.00373786 4.93155839 0.00658117 7.39733887 0.00857544 C13.83502422 0.01615104 20.27261694 0.03574627 26.71026611 0.0579834 C33.30032092 0.07857382 39.89039093 0.08760517 46.48046875 0.09765625 C59.37243497 0.11899878 72.26433752 0.15266638 85.15625 0.1953125 C85.93481852 3.14397143 86.28255732 5.70851491 86.28564453 8.7644043 C86.28879669 9.66180832 86.29194885 10.55921234 86.29519653 11.48381042 C86.29216019 12.92461723 86.29216019 12.92461723 86.2890625 14.39453125 C86.29001923 15.38532181 86.29097595 16.37611237 86.29196167 17.39692688 C86.29264139 19.4873562 86.29080162 21.57778764 86.28662109 23.66821289 C86.28125291 26.88106979 86.28658186 30.09378797 86.29296875 33.30664062 C86.29230827 35.33593781 86.29102772 37.36523491 86.2890625 39.39453125 C86.29108673 40.36114182 86.29311096 41.32775238 86.29519653 42.32365417 C86.29046829 43.65557549 86.29046829 43.65557549 86.28564453 45.0144043 C86.28484894 45.79953903 86.28405334 46.58467377 86.28323364 47.39360046 C86.15625 49.1953125 86.15625 49.1953125 85.15625 50.1953125 C82.04448559 50.30480385 78.95410949 50.34955525 75.84155273 50.35302734 C74.86248962 50.35810806 73.88342651 50.36318878 72.87469482 50.36842346 C70.7379338 50.37915833 68.60116132 50.38776617 66.46438408 50.39454269 C63.06995148 50.40631901 59.67564685 50.42577539 56.28126526 50.44766235 C46.62578684 50.50927309 36.97031674 50.56306188 27.31469727 50.59667969 C21.41304441 50.61778198 15.51161699 50.6532239 9.61009407 50.69743729 C7.37093855 50.71149295 5.13174305 50.72029583 2.8925457 50.72349167 C-24.19246812 50.45296267 -24.19246812 50.45296267 -47.99609375 62.01171875 C-57.31908028 71.76833256 -59.38017703 85.8949403 -59.08984375 98.92578125 C-58.22275692 110.44564916 -56.41833921 122.45105647 -48.02734375 131.05859375 C-32.36055861 143.81357236 -9.67846017 142.65352896 9.34765625 142.70703125 C11.63265422 142.72391515 13.91764312 142.74207024 16.20262146 142.76142883 C22.15853028 142.80853232 28.1144023 142.83859656 34.07043457 142.86486816 C41.24781427 142.9001703 48.42505269 142.95706797 55.60231781 143.01026154 C66.45360946 143.08830927 77.30472213 143.13926721 88.15625 143.1953125 C88.15625 159.6953125 88.15625 176.1953125 88.15625 193.1953125 C63.12389644 193.27553012 63.12389644 193.27553012 52.31054688 193.29296875 C44.98198487 193.30484425 37.65347365 193.31876828 30.32495117 193.34619141 C24.40508029 193.36820037 18.485264 193.37993911 12.5653553 193.38506699 C10.32636724 193.38871313 8.08738157 193.3958299 5.84841728 193.40677261 C-29.95447913 193.57451818 -65.78099411 191.4551594 -92.84375 165.1953125 C-93.46894531 164.64359375 -94.09414063 164.091875 -94.73828125 163.5234375 C-110.11135466 149.50374979 -116.61489385 126.38847777 -117.75390625 106.1640625 C-117.78355469 105.184375 -117.81320312 104.2046875 -117.84375 103.1953125 C-117.88371094 102.050625 -117.92367188 100.9059375 -117.96484375 99.7265625 C-118.41532908 74.49938425 -113.2181153 49.39855836 -95.84375 30.1953125 C-95.17859375 29.43734375 -94.5134375 28.679375 -93.828125 27.8984375 C-69.69646987 1.97925236 -33.09374316 -0.14863343 0 0 Z M-89.84375 37.1953125 C-107.30439441 59.83513812 -110.73627201 88.0866145 -107.52734375 115.94189453 C-106.73334007 120.51994247 -105.40961851 124.81706172 -103.84375 129.1953125 C-103.493125 130.31164062 -103.1425 131.42796875 -102.78125 132.578125 C-96.28997631 151.64624146 -82.47749878 164.612549 -64.94140625 173.69921875 C-58.91013624 176.3976411 -52.64285218 178.21197387 -46.28125 179.9453125 C-45.51401611 180.15639648 -44.74678223 180.36748047 -43.95629883 180.58496094 C-34.44531111 183.0400596 -24.82780338 183.34652646 -15.0480957 183.30883789 C-14.03211807 183.30898392 -13.01614044 183.30912994 -11.96937561 183.3092804 C-8.65273815 183.30859064 -5.33615875 183.3008427 -2.01953125 183.29296875 C0.29645253 183.29110123 2.6124367 183.28967891 4.92842102 183.28868103 C10.99296174 183.28488213 17.05747811 183.27507455 23.12200928 183.26397705 C29.32287263 183.25370617 35.52373995 183.2491713 41.72460938 183.24414062 C53.86850194 183.23344969 66.01237013 183.21587444 78.15625 183.1953125 C78.15625 172.9653125 78.15625 162.7353125 78.15625 152.1953125 C73.79913818 152.18129395 73.79913818 152.18129395 69.35400391 152.16699219 C59.69083607 152.13302527 50.02787738 152.07736858 40.3648777 152.01140976 C34.51374922 151.97212168 28.66276705 151.9398424 22.81152344 151.92431641 C17.15084081 151.90902591 11.49056092 151.8743643 5.83005905 151.82700348 C3.68467104 151.81231631 1.5392255 151.80427888 -0.60621262 151.80342865 C-20.10980056 151.78794499 -40.53437854 150.76693293 -55.78125 136.9453125 C-67.95085407 123.32622705 -68.74476743 106.14084665 -68.01220703 88.79541016 C-67.13783009 75.2995922 -63.23898043 62.37205438 -52.84375 53.1953125 C-45.33560495 47.77639042 -37.89282843 44.86707312 -28.84375 43.1953125 C-28.19508972 43.0362291 -27.54642944 42.87714569 -26.87811279 42.71324158 C-16.78778443 40.47318971 -6.48639822 40.83962246 3.79296875 40.78125 C5.88475793 40.76251421 7.97653974 40.74293905 10.0683136 40.7225647 C15.54096104 40.67149209 21.01363292 40.63173404 26.48638916 40.59442139 C32.0840853 40.55422487 37.68168197 40.50320432 43.27929688 40.453125 C54.23821792 40.35666056 65.19718091 40.27316433 76.15625 40.1953125 C76.15625 29.9653125 76.15625 19.7353125 76.15625 9.1953125 C63.17577237 9.08141177 50.19563784 8.99008491 37.21476936 8.93625164 C31.18432872 8.91038745 25.15425373 8.87542405 19.12402344 8.81811523 C13.28191522 8.76295491 7.44015397 8.73371886 1.59780502 8.72092628 C-0.60804823 8.71183456 -2.81388703 8.69409225 -5.01958847 8.66666222 C-35.61263727 8.30206493 -68.15501719 13.47435594 -89.84375 37.1953125 Z " fill="#BACDFF" transform="translate(393.84375,146.8046875)"/>
</svg>
