<?xml version="1.0" encoding="UTF-8"?>
<svg version="1.1" xmlns="http://www.w3.org/2000/svg" width="500" height="500">
<path d="M0 0 C1.48913987 0.00197818 2.97828656 0.00085904 4.46742249 -0.00309753 C8.48177434 -0.00509384 12.49464146 0.03585876 16.5086503 0.08492017 C20.71393064 0.12888527 24.91925063 0.13280739 29.12472534 0.14109802 C37.07560281 0.16279487 45.02580096 0.22015572 52.97638023 0.29054445 C62.03317544 0.3689744 71.09000427 0.40732109 80.14705491 0.4424125 C98.76622673 0.51544444 117.3847676 0.63845086 136.00341797 0.79467773 C132.8299542 4.07780523 129.76348729 6.29816248 125.79638672 8.58764648 C125.19393631 8.9379744 124.5914859 9.28830231 123.97077942 9.64924622 C122.04750387 10.76612023 120.11946833 11.87444165 118.19091797 12.98217773 C115.68323457 14.43197786 113.17740745 15.88497483 110.67138672 17.33764648 C110.03986694 17.70293457 109.40834717 18.06822266 108.75769043 18.44458008 C103.05717023 21.74752961 97.40913301 25.13446982 91.76538086 28.53320312 C87.99177378 30.80491667 84.20635709 33.05635745 80.41748047 35.30249023 C79.78672607 35.67646942 79.15597168 36.05044861 78.50610352 36.4357605 C77.21268262 37.20250122 75.91921487 37.96916291 74.6257019 38.73574829 C61.06882696 46.77185329 47.52820307 54.83431175 34.03076172 62.9699707 C31.92207258 64.24096607 29.81264062 65.5107295 27.70263672 66.77954102 C24.44630456 68.7389318 21.19315896 70.70350552 17.94091797 72.66967773 C16.93988037 73.27142822 15.93884277 73.87317871 14.9074707 74.49316406 C13.99940674 75.04383545 13.09134277 75.59450684 12.15576172 76.16186523 C10.94907837 76.89058838 10.94907837 76.89058838 9.71801758 77.6340332 C9.15219971 78.0170459 8.58638184 78.40005859 8.00341797 78.79467773 C8.00341797 79.12467773 8.00341797 79.45467773 8.00341797 79.79467773 C8.68629883 79.88966553 9.36917969 79.98465332 10.07275391 80.08251953 C56.63673451 86.65373455 103.56368187 101.63223748 133.50341797 140.41967773 C164.72120997 183.36368543 172.08661923 237.98545616 164.37841797 289.79467773 C157.20192804 332.26989917 137.52142545 367.8747351 102.35449219 393.18432617 C95.89077257 397.61160495 88.98107905 401.25380015 82.00341797 404.79467773 C80.88451172 405.36831055 79.76560547 405.94194336 78.61279297 406.53295898 C56.58222422 417.24380083 32.19296503 422.14067188 8.00341797 424.79467773 C7.33869602 424.87497223 6.67397408 424.95526672 5.98910904 425.03799438 C-0.93899966 425.81734164 -7.79331066 425.94903642 -14.76049805 425.95581055 C-16.61902908 425.9632579 -16.61902908 425.9632579 -18.5151062 425.97085571 C-21.8900677 425.98288775 -25.26496784 425.99040394 -28.63994336 425.99486637 C-30.76254293 425.99781951 -32.88513736 426.00192855 -35.0077343 426.00637054 C-41.68889224 426.02002445 -48.37003812 426.02969769 -55.05120903 426.03357244 C-62.6872156 426.03802846 -70.32304095 426.05546995 -77.95899254 426.08457303 C-83.90858378 426.10643697 -89.85812504 426.11628988 -95.80775589 426.11761355 C-99.33801439 426.11864547 -102.86810224 426.12419573 -106.39831734 426.14243317 C-136.09323394 426.28697306 -164.82244986 423.50161294 -192.99658203 413.79467773 C-193.97208008 413.4664502 -193.97208008 413.4664502 -194.96728516 413.1315918 C-232.08173075 400.53461987 -262.94318674 374.63263967 -280.99658203 339.79467773 C-303.97258432 292.9847851 -304.53137764 232.679857 -288.69189453 183.65795898 C-276.22972309 147.24596401 -250.08899828 117.75593692 -215.8125 100.53564453 C-192.13862882 89.03673865 -166.21587502 81.4330745 -139.80639648 80.234375 C-128.34734095 79.70383488 -121.87388346 76.63816547 -113.05859375 69.43481445 C-109.32367715 66.46403897 -105.36165532 63.81452663 -101.43408203 61.10717773 C-99.73389884 59.91714818 -98.03469874 58.72571301 -96.33642578 57.53295898 C-90.7327629 53.60634262 -85.11538384 49.69958752 -79.49658203 45.79467773 C-71.51238325 40.24516427 -63.53984319 34.67943543 -55.57714844 29.09912109 C-48.07534113 23.84426445 -40.55709919 18.61316039 -33.03564453 13.38647461 C-32.13330078 12.7593457 -31.23095703 12.1322168 -30.30126953 11.48608398 C-29.5173584 10.94153564 -28.73344727 10.3969873 -27.92578125 9.8359375 C-25.09084063 7.94005418 -25.09084063 7.94005418 -23.05025101 6.09202385 C-15.66784362 0.07151055 -9.2350289 -0.17313432 0 0 Z M-117.04736328 168.67358398 C-118.20259491 168.7502681 -119.35782654 168.82695221 -120.54806519 168.90596008 C-141.45496276 170.49102826 -163.02367677 176.79265546 -177.68408203 192.60717773 C-183.52381707 199.47679871 -183.52381707 199.47679871 -185.99658203 207.79467773 C-106.79658203 207.79467773 -27.59658203 207.79467773 54.00341797 207.79467773 C49.43730967 194.09635283 39.67987148 185.25542761 27.1965332 178.64697266 C0.49043622 165.37388254 -31.74502751 167.60533003 -60.74414062 167.609375 C-63.81125846 167.60945583 -66.87822555 167.6025676 -69.9453125 167.58886719 C-85.67549469 167.51983195 -101.34666176 167.61883205 -117.04736328 168.67358398 Z M-185.99658203 296.79467773 C-183.1137815 308.32587985 -174.74920478 316.525483 -165.12158203 322.91967773 C-142.46084917 336.23874589 -115.73539279 336.94505531 -90.17236328 336.99780273 C-89.23483908 337.00063011 -88.29731487 337.00345749 -87.33138084 337.00637054 C-82.36064763 337.02127806 -77.38994276 337.03055831 -72.41918945 337.03491211 C-68.36896672 337.03927919 -64.31895911 337.05311409 -60.26879883 337.07592773 C-4.94695613 339.02162338 -4.94695613 339.02162338 42.88232422 315.06420898 C45.90319531 311.83193255 48.5599652 308.48001739 51.00341797 304.79467773 C51.62216797 303.86655273 52.24091797 302.93842773 52.87841797 301.98217773 C54.23209198 299.7600061 54.23209198 299.7600061 54.00341797 296.79467773 C-25.19658203 296.79467773 -104.39658203 296.79467773 -185.99658203 296.79467773 Z " fill="#7FA3FF" transform="translate(315.99658203125,23.205322265625)"/>
<path d="M0 0 C1.48913987 0.00197818 2.97828656 0.00085904 4.46742249 -0.00309753 C8.48177434 -0.00509384 12.49464146 0.03585876 16.5086503 0.08492017 C20.71393064 0.12888527 24.91925063 0.13280739 29.12472534 0.14109802 C37.07560281 0.16279487 45.02580096 0.22015572 52.97638023 0.29054445 C62.03317544 0.3689744 71.09000427 0.40732109 80.14705491 0.4424125 C98.76622673 0.51544444 117.3847676 0.63845086 136.00341797 0.79467773 C132.8299542 4.07780523 129.76348729 6.29816248 125.79638672 8.58764648 C125.19393631 8.9379744 124.5914859 9.28830231 123.97077942 9.64924622 C122.04750387 10.76612023 120.11946833 11.87444165 118.19091797 12.98217773 C115.68323457 14.43197786 113.17740745 15.88497483 110.67138672 17.33764648 C110.03986694 17.70293457 109.40834717 18.06822266 108.75769043 18.44458008 C103.05717023 21.74752961 97.40913301 25.13446982 91.76538086 28.53320312 C87.99177378 30.80491667 84.20635709 33.05635745 80.41748047 35.30249023 C79.78672607 35.67646942 79.15597168 36.05044861 78.50610352 36.4357605 C77.21268262 37.20250122 75.91921487 37.96916291 74.6257019 38.73574829 C61.06882696 46.77185329 47.52820307 54.83431175 34.03076172 62.9699707 C31.92207258 64.24096607 29.81264062 65.5107295 27.70263672 66.77954102 C24.44630456 68.7389318 21.19315896 70.70350552 17.94091797 72.66967773 C16.93988037 73.27142822 15.93884277 73.87317871 14.9074707 74.49316406 C13.99940674 75.04383545 13.09134277 75.59450684 12.15576172 76.16186523 C10.94907837 76.89058838 10.94907837 76.89058838 9.71801758 77.6340332 C9.15219971 78.0170459 8.58638184 78.40005859 8.00341797 78.79467773 C8.00341797 79.12467773 8.00341797 79.45467773 8.00341797 79.79467773 C8.68629883 79.88966553 9.36917969 79.98465332 10.07275391 80.08251953 C56.63673451 86.65373455 103.56368187 101.63223748 133.50341797 140.41967773 C164.72120997 183.36368543 172.08661923 237.98545616 164.37841797 289.79467773 C157.20192804 332.26989917 137.52142545 367.8747351 102.35449219 393.18432617 C95.89077257 397.61160495 88.98107905 401.25380015 82.00341797 404.79467773 C80.88451172 405.36831055 79.76560547 405.94194336 78.61279297 406.53295898 C56.58222422 417.24380083 32.19296503 422.14067188 8.00341797 424.79467773 C7.33869602 424.87497223 6.67397408 424.95526672 5.98910904 425.03799438 C-0.93899966 425.81734164 -7.79331066 425.94903642 -14.76049805 425.95581055 C-16.61902908 425.9632579 -16.61902908 425.9632579 -18.5151062 425.97085571 C-21.8900677 425.98288775 -25.26496784 425.99040394 -28.63994336 425.99486637 C-30.76254293 425.99781951 -32.88513736 426.00192855 -35.0077343 426.00637054 C-41.68889224 426.02002445 -48.37003812 426.02969769 -55.05120903 426.03357244 C-62.6872156 426.03802846 -70.32304095 426.05546995 -77.95899254 426.08457303 C-83.90858378 426.10643697 -89.85812504 426.11628988 -95.80775589 426.11761355 C-99.33801439 426.11864547 -102.86810224 426.12419573 -106.39831734 426.14243317 C-136.09323394 426.28697306 -164.82244986 423.50161294 -192.99658203 413.79467773 C-193.97208008 413.4664502 -193.97208008 413.4664502 -194.96728516 413.1315918 C-232.08173075 400.53461987 -262.94318674 374.63263967 -280.99658203 339.79467773 C-303.97258432 292.9847851 -304.53137764 232.679857 -288.69189453 183.65795898 C-276.22972309 147.24596401 -250.08899828 117.75593692 -215.8125 100.53564453 C-192.13862882 89.03673865 -166.21587502 81.4330745 -139.80639648 80.234375 C-128.34734095 79.70383488 -121.87388346 76.63816547 -113.05859375 69.43481445 C-109.32367715 66.46403897 -105.36165532 63.81452663 -101.43408203 61.10717773 C-99.73389884 59.91714818 -98.03469874 58.72571301 -96.33642578 57.53295898 C-90.7327629 53.60634262 -85.11538384 49.69958752 -79.49658203 45.79467773 C-71.51238325 40.24516427 -63.53984319 34.67943543 -55.57714844 29.09912109 C-48.07534113 23.84426445 -40.55709919 18.61316039 -33.03564453 13.38647461 C-32.13330078 12.7593457 -31.23095703 12.1322168 -30.30126953 11.48608398 C-29.5173584 10.94153564 -28.73344727 10.3969873 -27.92578125 9.8359375 C-25.09084063 7.94005418 -25.09084063 7.94005418 -23.05025101 6.09202385 C-15.66784362 0.07151055 -9.2350289 -0.17313432 0 0 Z M-249.18408203 147.10717773 C-266.48273307 167.30684479 -275.85750878 192.86090402 -279.99658203 218.79467773 C-280.17535889 219.89642334 -280.35413574 220.99816895 -280.53833008 222.13330078 C-281.99515549 231.91706772 -282.35685298 241.48141823 -282.30908203 251.35717773 C-282.30725922 252.1435965 -282.3054364 252.93001526 -282.30355835 253.74026489 C-282.25345608 266.62895213 -281.5072042 279.1243879 -278.99658203 291.79467773 C-278.83561035 292.65480469 -278.67463867 293.51493164 -278.50878906 294.40112305 C-271.73363013 329.74128923 -252.73816141 360.21997646 -222.87109375 380.54858398 C-178.20276273 410.242145 -124.44804787 410.3219316 -72.86975098 410.11724854 C-68.29309689 410.10383322 -63.71654031 410.10908569 -59.13987541 410.11410904 C-4.35097474 410.79865126 -4.35097474 410.79865126 49.00341797 399.79467773 C50.0770459 399.4333374 50.0770459 399.4333374 51.17236328 399.06469727 C86.86887003 386.89509486 117.21596903 365.61738943 134.21582031 331.15625 C155.01830627 286.58489762 155.88373084 230.51574474 139.25341797 184.48217773 C126.43165825 151.1363479 100.42549894 127.49705801 68.81591797 112.16967773 C37.85986416 98.77701373 4.89205141 95.29284189 -28.52127481 95.39170122 C-31.99369672 95.39948043 -35.46609908 95.39220263 -38.93852234 95.38754272 C-44.76513016 95.3821346 -50.59162271 95.38914241 -56.41821289 95.40356445 C-63.07623421 95.41985815 -69.73397924 95.41460613 -76.39199382 95.39808524 C-82.18816847 95.38429913 -87.98426185 95.38263333 -93.78044766 95.39040124 C-97.20712 95.39498843 -100.63366434 95.39596026 -104.06032753 95.38579178 C-158.27167648 95.27558392 -210.81573763 106.24148548 -249.18408203 147.10717773 Z " fill="#BACDFF" transform="translate(315.99658203125,23.205322265625)"/>
<path d="M0 0 C94.38 0 188.76 0 286 0 C283.64946591 12.92793747 283.64946591 12.92793747 281.3125 18.9375 C281.04977295 19.6171582 280.7870459 20.29681641 280.51635742 20.99707031 C272.3994861 41.33826065 258.65596238 54.67670036 238.71484375 63.43359375 C221.34403855 70.83645411 202.60325799 73.17302355 183.80957031 73.12939453 C182.38026688 73.13202301 182.38026688 73.13202301 180.92208862 73.13470459 C177.80741492 73.13906481 174.69279917 73.13620486 171.578125 73.1328125 C169.38775624 73.13348744 167.19738755 73.13445904 165.00701904 73.13571167 C160.42784915 73.13718095 155.84869885 73.13505972 151.26953125 73.13037109 C145.43873144 73.12468786 139.60797782 73.12794883 133.77717972 73.13394356 C129.25579489 73.13758157 124.73442076 73.13639556 120.21303558 73.13381577 C118.06513208 73.13315473 115.91722757 73.13394569 113.76932526 73.13629532 C97.65414591 73.15005334 81.89803034 73.15907634 66.125 69.4375 C65.00585205 69.17356445 63.8867041 68.90962891 62.73364258 68.63769531 C41.97011411 63.46959169 23.42695169 52.80512305 11.90771484 34.24365234 C8.47296952 28.44437313 5.83386925 22.4664287 3.5625 16.125 C3.3154834 15.43599609 3.0684668 14.74699219 2.81396484 14.03710938 C1.17687155 9.18767265 0.66804182 5.34433458 0 0 Z M23 17 C25.88280053 28.53120212 34.24737725 36.73080527 43.875 43.125 C66.53573286 56.44406816 93.26118924 57.15037758 118.82421875 57.203125 C119.76174295 57.20595238 120.69926716 57.20877975 121.66520119 57.21169281 C126.6359344 57.22660033 131.60663927 57.23588057 136.57739258 57.24023438 C140.62761531 57.24460145 144.67762292 57.25843636 148.7277832 57.28125 C204.0496259 59.22694564 204.0496259 59.22694564 251.87890625 35.26953125 C254.89977734 32.03725482 257.55654723 28.68533965 260 25 C260.61875 24.071875 261.2375 23.14375 261.875 22.1875 C263.22867401 19.96532836 263.22867401 19.96532836 263 17 C183.8 17 104.6 17 23 17 Z " fill="#B9CDFF" transform="translate(107,303)"/>
<path d="M0 0 C1.03419571 -0.00817749 2.06839142 -0.01635498 3.13392639 -0.02478027 C6.53060362 -0.04942901 9.92723936 -0.06610547 13.32397461 -0.08056641 C14.49718199 -0.08589008 15.67038937 -0.09121376 16.87914848 -0.09669876 C23.1000897 -0.12335303 29.32101148 -0.14274472 35.54199219 -0.15722656 C40.63820604 -0.17050027 45.7340133 -0.19824321 50.83007812 -0.23925781 C57.03386031 -0.28915918 63.23727756 -0.31341744 69.44125175 -0.32045364 C71.77909785 -0.32707566 74.11693877 -0.34205323 76.45466805 -0.36634445 C107.12878277 -0.66667201 138.58287152 4.62199743 162.34741211 25.38037109 C175.59452951 38.60911524 181.27362728 54.03864604 185.16381836 72.19287109 C90.78381836 72.19287109 -3.59618164 72.19287109 -100.83618164 72.19287109 C-97.33815433 55.86874363 -97.33815433 55.86874363 -94.58618164 49.94287109 C-94.13275391 48.94030273 -94.13275391 48.94030273 -93.67016602 47.91748047 C-91.00327603 42.20271621 -87.78357628 37.11822387 -83.83618164 32.19287109 C-83.03954102 31.15259766 -83.03954102 31.15259766 -82.22680664 30.09130859 C-69.83213342 14.80454496 -49.74239074 6.71127966 -30.89868164 3.06787109 C-30.06916992 2.89900391 -29.2396582 2.73013672 -28.38500977 2.55615234 C-18.94310549 0.69271514 -9.61424739 0.04296019 0 0 Z M-8.88696289 17.07177734 C-10.04219452 17.14846146 -11.19742615 17.22514557 -12.38766479 17.30415344 C-33.29456237 18.88922162 -54.86327638 25.19084882 -69.52368164 41.00537109 C-75.36341668 47.87499207 -75.36341668 47.87499207 -77.83618164 56.19287109 C1.36381836 56.19287109 80.56381836 56.19287109 162.16381836 56.19287109 C157.59771006 42.49454619 147.84027187 33.65362097 135.35693359 27.04516602 C108.65083661 13.7720759 76.41537288 16.00352339 47.41625977 16.00756836 C44.34914193 16.00764919 41.28217484 16.00076096 38.21508789 15.98706055 C22.4849057 15.91802531 6.81373864 16.01702541 -8.88696289 17.07177734 Z " fill="#BACDFF" transform="translate(207.836181640625,174.80712890625)"/>
<path d="M0 0 C0.83007568 -0.00073013 1.66015137 -0.00146027 2.51538086 -0.00221252 C5.23758093 0.00124909 7.95803346 0.04004066 10.67993164 0.0793457 C12.57563848 0.08867895 14.47135744 0.09579264 16.36708069 0.1007843 C21.34040007 0.11981386 26.31298156 0.16887966 31.28601074 0.2243042 C36.36708598 0.27558409 41.44828122 0.29831698 46.52954102 0.32348633 C56.48754632 0.37700244 66.44500558 0.46226608 76.40258789 0.56762695 C73.73407384 3.35374686 70.99699861 5.11493106 67.64477539 7.05200195 C67.07382645 7.3839859 66.5028775 7.71596985 65.91462708 8.05801392 C64.68262422 8.77386783 63.44943063 9.48767559 62.21517944 10.199646 C58.90086176 12.11199127 55.59570341 14.04006778 52.28930664 15.96606445 C51.6179921 16.3565799 50.94667755 16.74709534 50.25502014 17.14944458 C44.16793698 20.6940583 38.1229377 24.30650454 32.09008789 27.94262695 C22.38038615 33.78819922 12.64831043 39.5948901 2.90258789 45.38012695 C2.25148041 45.76682556 1.60037292 46.15352417 0.92953491 46.55194092 C-0.02413467 47.1182724 -0.02413467 47.1182724 -0.99707031 47.69604492 C-1.62679749 48.07145416 -2.25652466 48.4468634 -2.90533447 48.83364868 C-4.18889408 49.591702 -5.47848751 50.33962235 -6.77362061 51.07772827 C-10.08362362 52.97935624 -13.12971725 54.93802324 -16.09716797 57.34399414 C-29.75757441 67.79454271 -46.43240533 65.71671813 -62.75048828 65.25427246 C-66.79984128 65.15066909 -70.84984104 65.10603021 -74.90014648 65.0559082 C-82.80098397 64.94970382 -90.69871188 64.77979853 -98.59741211 64.56762695 C-95.22419959 61.0910595 -91.60981068 58.380934 -87.59741211 55.69262695 C-86.15412284 54.71301356 -84.71144261 53.73250242 -83.26928711 52.7512207 C-82.5080957 52.23414551 -81.7469043 51.71707031 -80.96264648 51.18432617 C-76.90087553 48.40800007 -72.87478316 45.58102063 -68.84741211 42.75512695 C-68.00605713 42.16538086 -67.16470215 41.57563477 -66.29785156 40.96801758 C-64.58129043 39.76464841 -62.86490086 38.56103448 -61.14868164 37.35717773 C-57.02865151 34.46724272 -52.90712479 31.57944774 -48.78491211 28.69262695 C-47.97739502 28.12705078 -47.16987793 27.56147461 -46.33789062 26.97875977 C-38.69539939 21.62954034 -31.03669931 16.30368414 -23.37353516 10.98413086 C-22.46128174 10.35039551 -21.54902832 9.71666016 -20.60913086 9.0637207 C-19.80950928 8.50869873 -19.0098877 7.95367676 -18.18603516 7.38183594 C-15.73530498 5.72198942 -15.73530498 5.72198942 -14.11561966 4.31666374 C-9.41606694 0.52033975 -5.94486741 -0.13885243 0 0 Z " fill="#7FA3FF" transform="translate(314.597412109375,40.432373046875)"/>
</svg>
